# xmcd CD database file
#
# Track frame offsets:
#	150
#	25774
#	38304
#	55177
#	73656
#	83354
#	102039
#	128472
#	147840
#	174155
#	185708
#	198802
#	208438
#	215915
#
# Disc length: 3056 seconds
#
# Revision: 0
# Processed by: cddbd v1.4PL0 Copyright (c) Steve Scherf et al.
# Submitted via: Feurio! 1.63 - http://www.feurio.com
#
DISCID=ba0bee0e
DTITLE=No Alibi - Back For Blood And Soil
DYEAR=1900
DGENRE=
TTITLE0=Back For Blood And Soil
TTITLE1=Get Some Pride
TTITLE2=Its All Coming Down
TTITLE3=Kings Of The Mountain
TTITLE4=We've Lost Our Grip
TTITLE5=At Peace With Hate
TTITLE6=Knights Of The Round
TTITLE7=No Alibi Brotherhood
TTITLE8=Ritter Der Runde (Ritter Der Wewelsburg)
TTITLE9=Boot Party ---Buffalo Style
TTITLE10=Might Of Rage
TTITLE11=Turner
TTITLE12=Blue Collar Warrior
TTITLE13=Pride (Instrumental)
EXTD=
EXTT0=
EXTT1=
EXTT2=
EXTT3=
EXTT4=
EXTT5=
EXTT6=
EXTT7=
EXTT8=
EXTT9=
EXTT10=
EXTT11=
EXTT12=
EXTT13=
PLAYORDER=
